# xmcd
#
# Track frame offsets:
#	150
#	12302
#	31346
#	46877
#	61000
#	77667
#	94555
#	113049
#	129387
#	144173
#	162792
#	190920
#	211484
#	227842
#	247429
#	264641
#
# Disc length: 3831 seconds
#
# Revision: 0
# Processed by: cddbd v1.5.2PL0 Copyright (c) Steve Scherf et al.
# Submitted via: audiograbber 1.83.01
#
DISCID=d20ef510
DTITLE=JonesTM - HC200721
DYEAR=2007
DGENRE=Country
TTITLE0=Ronnie Bear - Mobile Home
TTITLE1=Cook and Glenn - Shining Star
TTITLE2=Crossin Dixon - Guitar Slinger
TTITLE3=Brandi Valentine - Burnin' Bridges
TTITLE4=Flynnville Train - Nowhere Than Somewhere
TTITLE5=Reba McEntire Duet With Kelly Clarkson - Because Of You
TTITLE6=Chrisette Michele - If I Have My Way
TTITLE7=Kelly Rowland Feat. Eve - Like This [Radio]
TTITLE8=Monica - Hell No (Leave Home) [Radio Edit (No Rap)]
TTITLE9=Paul Taylor Feat. Regina Bell - How Did You Know
TTITLE10=Fred Hammond - Thank You (I Won't Complain)
TTITLE11=Victor Fields Feat. Chris Camozzi - What's Going On [Album Version]
TTITLE12=David Benoit - Water To Drink (Agua De Beber)
TTITLE13=Maysa - I Can't Help It [Album Version]
TTITLE14=Nyee Moses - Between Us
TTITLE15=Nils - Catnap [Full Version]
EXTD=
EXTT0=
EXTT1=
EXTT2=
EXTT3=
EXTT4=
EXTT5=
EXTT6=
EXTT7=
EXTT8=
EXTT9=
EXTT10=
EXTT11=
EXTT12=
EXTT13=
EXTT14=
EXTT15=
PLAYORDER=
